<svg width="360" height="220" viewBox="0 0 360 220" fill="none" xmlns="http://www.w3.org/2000/svg" role="img" aria-label="Abstract dashboard illustration">
  <defs>
    <linearGradient id="gradient-dashboard" x1="36" y1="12" x2="320" y2="208" gradientUnits="userSpaceOnUse">
      <stop offset="0" stop-color="#6366F1"/>
      <stop offset="1" stop-color="#22D3EE"/>
    </linearGradient>
    <linearGradient id="gradient-dashboard-secondary" x1="68" y1="40" x2="240" y2="196" gradientUnits="userSpaceOnUse">
      <stop offset="0" stop-color="#FDE68A" stop-opacity="0.85"/>
      <stop offset="1" stop-color="#F97316" stop-opacity="0.9"/>
    </linearGradient>
    <filter id="shadow" x="0" y="0" width="360" height="220" filterUnits="userSpaceOnUse" color-interpolation-filters="sRGB">
      <feDropShadow dx="0" dy="20" stdDeviation="18" flood-color="#312E81" flood-opacity="0.18"/>
    </filter>
  </defs>
  <g filter="url(#shadow)">
    <rect x="20" y="20" width="320" height="180" rx="28" fill="url(#gradient-dashboard)"/>
    <rect x="44" y="48" width="160" height="56" rx="18" fill="rgba(255,255,255,0.22)"/>
    <circle cx="236" cy="90" r="44" fill="rgba(15,23,42,0.18)"/>
    <path d="M68 164C96 138 140 152 166 132C192 112 230 108 268 144" stroke="url(#gradient-dashboard-secondary)" stroke-width="14" stroke-linecap="round"/>
    <rect x="220" y="56" width="72" height="16" rx="8" fill="rgba(255,255,255,0.7)"/>
    <rect x="220" y="80" width="88" height="16" rx="8" fill="rgba(15,23,42,0.35)"/>
    <rect x="88" y="64" width="90" height="12" rx="6" fill="rgba(15,23,42,0.35)"/>
    <rect x="88" y="86" width="64" height="12" rx="6" fill="rgba(255,255,255,0.65)"/>
    <circle cx="104" cy="152" r="22" fill="rgba(255,255,255,0.65)"/>
    <path d="M96 148L104 156L120 138" stroke="#0EA5E9" stroke-width="6" stroke-linecap="round" stroke-linejoin="round"/>
  </g>
</svg>
